<?xml version="1.0" encoding="UTF-8" standalone="no"?>
<svg width="34px" height="33px" viewBox="0 0 34 33" version="1.1" xmlns="http://www.w3.org/2000/svg" xmlns:xlink="http://www.w3.org/1999/xlink" xmlns:sketch="http://www.bohemiancoding.com/sketch/ns">
    <!-- Generator: Sketch 3.3.2 (12043) - http://www.bohemiancoding.com/sketch -->
    <title>Fill 50</title>
    <desc>Created with Sketch.</desc>
    <defs></defs>
    <g id="Page-1" stroke="none" stroke-width="1" fill="none" fill-rule="evenodd" sketch:type="MSPage">
        <g id="Artboard-1" sketch:type="MSArtboardGroup" transform="translate(-15.000000, -15.000000)" fill="#FFFFFF">
            <path d="M15.7105,31.9025666 C15.7105,39.0995666 20.3775,45.2045666 26.8505,47.3585666 C27.6655,47.5085666 27.9625,47.0055666 27.9625,46.5735666 C27.9625,46.1865666 27.9485,45.1625666 27.9405,43.8035666 C23.4095,44.7875666 22.4535,41.6195666 22.4535,41.6195666 C21.7125,39.7375666 20.6445,39.2365666 20.6445,39.2365666 C19.1655,38.2265666 20.7565,38.2465666 20.7565,38.2465666 C22.3915,38.3615666 23.2515,39.9255666 23.2515,39.9255666 C24.7045,42.4145666 27.0645,41.6955666 27.9925,41.2785666 C28.1405,40.2265666 28.5615,39.5085666 29.0265,39.1015666 C25.4095,38.6905666 21.6065,37.2925666 21.6065,31.0505666 C21.6065,29.2725666 22.2415,27.8175666 23.2835,26.6795666 C23.1155,26.2675666 22.5565,24.6105666 23.4435,22.3685666 C23.4435,22.3685666 24.8105,21.9305666 27.9225,24.0385666 C29.2215,23.6765666 30.6155,23.4965666 32.0005,23.4895666 C33.3845,23.4965666 34.7775,23.6765666 36.0785,24.0385666 C39.1885,21.9305666 40.5535,22.3685666 40.5535,22.3685666 C41.4425,24.6105666 40.8835,26.2675666 40.7165,26.6795666 C41.7605,27.8175666 42.3905,29.2725666 42.3905,31.0505666 C42.3905,37.3085666 38.5815,38.6855666 34.9535,39.0885666 C35.5375,39.5915666 36.0585,40.5855666 36.0585,42.1045666 C36.0585,44.2825666 36.0385,46.0395666 36.0385,46.5735666 C36.0385,47.0095666 36.3325,47.5165666 37.1585,47.3575666 C43.6265,45.1985666 48.2895,39.0975666 48.2895,31.9025666 C48.2895,22.9055666 40.9955,15.6125666 31.9985,15.6125666 C23.0045,15.6125666 15.7105,22.9055666 15.7105,31.9025666 Z" id="Fill-50" sketch:type="MSShapeGroup"></path>
        </g>
    </g>
</svg>