<?xml version="1.0" encoding="UTF-8" standalone="no"?>
<!-- Created with Inkscape (http://www.inkscape.org/) -->

<svg
   xmlns:dc="http://purl.org/dc/elements/1.1/"
   xmlns:cc="http://creativecommons.org/ns#"
   xmlns:rdf="http://www.w3.org/1999/02/22-rdf-syntax-ns#"
   xmlns:svg="http://www.w3.org/2000/svg"
   xmlns="http://www.w3.org/2000/svg"
   xmlns:sodipodi="http://sodipodi.sourceforge.net/DTD/sodipodi-0.dtd"
   xmlns:inkscape="http://www.inkscape.org/namespaces/inkscape"
   id="svg3527"
   version="1.1"
   inkscape:version="0.91 r13725"
   width="381.14999"
   height="495"
   viewBox="0 0 381.14999 495"
   sodipodi:docname="illinois_black.svg">
  <metadata
     id="metadata3533">
    <rdf:RDF>
      <cc:Work
         rdf:about="">
        <dc:format>image/svg+xml</dc:format>
        <dc:type
           rdf:resource="http://purl.org/dc/dcmitype/StillImage" />
        <dc:title></dc:title>
      </cc:Work>
    </rdf:RDF>
  </metadata>
  <defs
     id="defs3531" />
  <sodipodi:namedview
     pagecolor="#ffffff"
     bordercolor="#666666"
     borderopacity="1"
     objecttolerance="10"
     gridtolerance="10"
     guidetolerance="10"
     inkscape:pageopacity="0"
     inkscape:pageshadow="2"
     inkscape:window-width="1376"
     inkscape:window-height="1651"
     id="namedview3529"
     showgrid="false"
     inkscape:zoom="2.9252525"
     inkscape:cx="190.575"
     inkscape:cy="247.5"
     inkscape:window-x="1450"
     inkscape:window-y="95"
     inkscape:window-maximized="0"
     inkscape:current-layer="svg3527" />
  <path
     style="fill:#333333"
     d="m 22.049999,248.4 0,-224.55 168.524991,0 168.525,0 0,224.55 0,224.55 -168.525,0 -168.524991,0 0,-224.55 z m 325.349991,0 0,-213.3 -156.825,0 -156.824991,0 0,213.3 0,213.3 156.824991,0 156.825,0 0,-213.3 z M 104.0212,407.36363 c 0.14659,-6.32746 0.21297,-6.73929 1.41617,-8.78621 0.69431,-1.18116 2.09695,-2.69991 3.11699,-3.375 l 1.85461,-1.22742 43.12051,-0.11915 43.12051,-0.11914 0,-5.16836 0,-5.16835 -34.66445,0 c -38.12803,0 -37.02396,0.078 -38.47048,-2.71921 -1.01347,-1.95984 -0.556,-4.11391 1.18477,-5.57866 l 1.36922,-1.15213 35.29047,0 35.29047,0 0,-123.075 0,-123.075 -20.89047,0 -20.89047,0 -1.38453,-1.165 c -1.15279,-0.97001 -1.38452,-1.49055 -1.38452,-3.11 0,-1.61945 0.23173,-2.13999 1.38452,-3.11 l 1.38453,-1.165 20.89047,0 20.89047,0 0,-3.6 0,-3.6 -21.83945,0 c -23.97236,0 -24.25437,-0.0291 -25.60565,-2.6422 -0.88827,-1.71771 -0.89543,-3.33403 -0.0223,-5.02253 1.40061,-2.70848 1.18112,-2.68527 25.39504,-2.68527 l 22.07234,0 0,-4.05 0,-4.05 -33.90301,0 c -32.28955,0 -34.06843,0.0423 -37.37878,0.888948 -8.57437,2.192958 -13.53959,6.991892 -15.11463,14.608452 -1.84776,8.93535 4.15003,17.34381 12.37143,17.34381 6.37566,0 11.475,-4.78589 11.475,-10.76966 0,-1.82978 -0.2344,-2.51736 -1.2375,-3.63008 -1.65194,-1.83246 -3.9506,-2.21665 -5.58245,-0.93304 -1.03237,0.81206 -1.16224,1.18142 -0.95602,2.71893 0.20738,1.54614 0.059,1.95887 -1.13308,3.15092 -2.61645,2.61645 -6.42934,1.33563 -7.30322,-2.45328 -0.78392,-3.39882 0.53905,-7.11387 3.44053,-9.6614 2.40652,-2.11295 4.44426,-2.83851 8.04674,-2.8651 5.29493,-0.0391 9.33089,2.38755 11.85268,7.1265 1.06693,2.00497 1.19719,2.74005 1.19619,6.75 -9e-4,4.12232 -0.12133,4.75393 -1.43324,7.5255 -1.79235,3.78652 -4.78684,7.02511 -8.13398,8.797 -8.82339,4.67087 -17.94077,3.46949 -24.68598,-3.25284 -4.63465,-4.61892 -6.47392,-9.35238 -6.46533,-16.63884 0.009,-7.87912 2.16728,-13.279257 7.38381,-18.47713 3.60597,-3.59307 7.712,-5.874817 13.56196,-7.536461 l 3.57389,-1.015141 73.23749,-0.122719 73.2375,-0.12272 0,10.942362 0,10.942369 -5.7375,1.24675 c -15.02768,3.26551 -23.21618,7.6403 -28.65403,15.30868 -6.02596,8.49775 -9.4434,20.37217 -11.47687,39.87819 -1.25302,12.01961 -1.44738,25.1335 -1.26388,85.275 0.20139,66.00124 0.22047,66.60864 2.61483,83.25 4.23389,29.42658 13.64556,45.49139 30.69441,52.39238 5.17802,2.09594 8.53636,3.03197 15.39804,4.2917 l 5.4,0.99139 0,12.11227 0,12.11226 -87.90379,0.11363 -87.90379,0.11363 0.15379,-6.63863 z m 74.7786,-43.81207 c -0.78385,-0.22438 -1.94822,-1.02955 -2.5875,-1.78928 l -1.1623,-1.38133 0,-109.05595 0,-109.05595 1.13972,-1.35448 c 1.53732,-1.827 3.7732,-2.54512 5.82055,-1.86943 0.85815,0.28322 2.07315,1.12446 2.7,1.86943 l 1.13973,1.35448 0,109.05595 0,109.05595 -1.14477,1.36047 c -1.03823,1.23387 -1.79108,1.64421 -3.80523,2.07404 -0.37125,0.0792 -1.31634,-0.0395 -2.1002,-0.2639 z m -20.01458,-1.08394 c -0.65437,-0.35549 -1.41374,-1.28885 -1.6875,-2.07414 -0.70897,-2.03377 -0.70793,-216.55617 9e-4,-218.59 1.01086,-2.89975 5.20725,-3.54763 7.13172,-1.10106 l 0.91949,1.16895 0,109.32393 0,109.32393 -1.31538,1.31538 c -1.46743,1.46743 -3.12981,1.67583 -5.04939,0.63301 z"
     id="path3537"
     inkscape:connector-curvature="0" />
</svg>
