<svg id="Layer_1" data-name="Layer 1" xmlns="http://www.w3.org/2000/svg" viewBox="0 0 2368.55 800"><defs><style>.cls-1{fill:#fff;}.cls-2{fill:#333;}</style></defs><title>Artboard 1</title><path class="cls-1" d="M35.25,651V150h2310V651ZM99.58,323.83c17.38,0,34.19.13,51-.09,4.41-.06,6.07.93,6.06,5.77q-.26,81.49,0,163c0,4.37-1.31,5.81-5.69,5.75-15.33-.21-30.66-.08-46-.08H99.66V598.71H358.42c.15-1.43.38-2.56.38-3.7,0-30.66,0-61.32.09-92,0-4.07-1.55-5-5.33-5-15.83.18-31.66-.05-47.49.16-4.05.05-5.08-1.3-5.07-5.18q.16-82.24,0-164.47c0-3.74,1.17-4.87,4.86-4.83,15.5.17,31,.07,46.49.07,6.45,0,6.47,0,6.47-6.7q0-44.24,0-88.49c0-1.78-.15-3.56-.25-5.54h-259ZM1311.9,274.17c-.14,2.18-.31,3.64-.31,5.11q0,131.73-.08,263.47c0,3.82.89,5.21,5,5.16,16.49-.23,33-.09,49.49-.11,1.28,0,2.55-.24,4.52-.44V375.07l2.13-1.4A31.43,31.43,0,0,0,1375,378q31.34,41.3,62.77,82.54c21.23,27.92,42.41,55.88,63.79,83.69a9.56,9.56,0,0,0,6.46,3.38c14.33.3,28.66.17,43,.14a34.18,34.18,0,0,0,3.81-.42V274.54h-58.64V441.3l-1.29.55c-.68-.92-1.36-1.86-2.05-2.77l-45-59.15q-39.24-51.59-78.55-103.14a6.61,6.61,0,0,0-4.4-2.52C1347.42,274.1,1329.94,274.17,1311.9,274.17ZM1759.37,268c-11.65,1.59-23.42,2.56-34.92,4.89a134.75,134.75,0,0,0-72.15,39.92c-27.56,29-40.23,63.69-38.89,103.69.45,13.41,2,26.63,6.43,39.19,18.53,53,56.25,84.19,110.86,94.82,22.91,4.46,46,3.21,68.7-3,32.44-8.81,59.08-26.31,78.71-53.68,23-32.08,30.63-68,24.71-106.84-4.44-29.15-16.91-54.51-37.61-75.41C1836.21,282.34,1800.44,269.18,1759.37,268Zm432.08,285.19c12.93-2,26.07-3,38.73-6.08,20.63-5,38-15.65,50.07-33.76,10.34-15.56,13.17-32.93,12.69-51.32-.64-24.63-11.18-43.27-31.86-56.41-19.52-12.41-41.63-17.78-63.5-24.06a334,334,0,0,1-38.78-13.82c-9.74-4.15-12.81-13-11.64-23.24,1.09-9.5,7.06-15.15,15.51-18.41,13.42-5.19,27.1-4.17,40.67-.8,16.61,4.12,31.7,11.71,45.74,21.4,3.34,2.31,5.33,2.47,7.89-1.42,8-12.23,16.48-24.19,24.93-36.13,2.34-3.31,2.9-5.81-1.19-8a38.63,38.63,0,0,1-3.65-2.61c-37.31-25.77-78.47-34-122.71-25.54-22.28,4.26-41.06,15.47-53.93,34.75-14.16,21.2-16,44.55-10.36,68.83a55.86,55.86,0,0,0,12.89,25c15,16.78,35.22,23.8,55.82,30.05,15.86,4.81,31.89,9.07,47.74,13.91a84.64,84.64,0,0,1,14.08,6.23c9.28,4.83,14.11,12.38,12.92,23.11-1.23,11.12-8.26,17.57-18.19,20.89-19.33,6.46-38.41,3.46-57.17-2.76-15.63-5.18-29.51-13.63-42.2-24-3-2.47-4.86-2.66-7.57.73q-14,17.53-28.76,34.49c-2.76,3.18-2.73,4.78.54,7.47C2112.47,538.18,2149.59,551.24,2191.45,553.18ZM890.92,494.12H761.72c-7.66,0-7.67,0-7.67-7.84q0-102.7,0-205.4v-6.32H694.8c-.09,2-.23,3.63-.23,5.26q0,131.19-.09,262.38c0,4.32,1.12,5.71,5.59,5.7q92.71-.21,185.41-.11c1.76,0,3.53-.2,5.44-.32Zm241.87,53.42V494.13H1003.7c-7.71,0-7.72,0-7.72-7.5q0-103,0-205.91c0-2.09-.2-4.18-.3-6.12H936.48c0,1.9,0,3.38,0,4.86q0,131.44-.1,262.88c0,4.45,1.22,5.57,5.6,5.56q92.71-.21,185.42-.11C1129,547.78,1130.67,547.64,1132.79,547.54Zm-570.24-.35a6.74,6.74,0,0,0,1.65.52c18,0,36,0,54,.1,3.74,0,3.79-2.18,3.79-4.91q0-131.93.06-263.86c0-4.21-1.61-5-5.3-4.94-9.66.19-19.32.06-29,.06H562.54Zm676-.44c.13-1.57.33-2.86.33-4.16q0-131.72.08-263.44c0-3.7-1.1-4.91-4.84-4.87-16.16.17-32.33.23-48.49,0-4.88-.08-6.13,1.55-6.12,6.3q.2,130.22.1,260.44v5.75ZM2023,274.61a21.26,21.26,0,0,0-2.5-.36c-17.33,0-34.67.07-52-.1-4,0-4.11,2.07-4.11,5q.06,131.74-.05,263.49c0,4,1.27,5.12,5.16,5.08,16.33-.18,32.66-.07,49-.09,1.45,0,2.89-.25,4.51-.4Z"/><path class="cls-2" d="M99.58,323.83V223.09h259c.09,2,.25,3.77.25,5.54q0,44.24,0,88.49c0,6.7,0,6.7-6.47,6.7-15.5,0-31,.1-46.49-.07-3.69,0-4.87,1.09-4.86,4.83q.15,82.24,0,164.47c0,3.89,1,5.24,5.07,5.18,15.83-.21,31.66,0,47.49-.16,3.78,0,5.35.88,5.33,5-.13,30.66-.07,61.32-.09,92,0,1.14-.23,2.27-.38,3.7H99.66V498.15h5.28c15.33,0,30.66-.13,46,.08,4.38.06,5.7-1.38,5.69-5.75q-.19-81.49,0-163c0-4.84-1.65-5.83-6.06-5.77C133.77,324,117,323.83,99.58,323.83Z"/><path class="cls-2" d="M1311.9,274.17c18,0,35.52-.06,53,.11a6.61,6.61,0,0,1,4.4,2.52q39.37,51.5,78.55,103.14l45,59.15c.7.92,1.37,1.85,2.05,2.77l1.29-.55V274.54h58.64V547.36a34.18,34.18,0,0,1-3.81.42c-14.33,0-28.67.17-43-.14a9.56,9.56,0,0,1-6.46-3.38c-21.38-27.81-42.56-55.77-63.79-83.69Q1406.39,419.32,1375,378a31.43,31.43,0,0,1-2.36-4.37l-2.13,1.4V547.34c-2,.2-3.24.44-4.52.44-16.5,0-33-.12-49.49.11-4.11.06-5-1.34-5-5.16q.13-131.73.08-263.47C1311.59,277.81,1311.76,276.34,1311.9,274.17Z"/><path class="cls-2" d="M1759.37,268c41.07,1.19,76.84,14.35,105.84,43.63,20.7,20.9,33.17,46.26,37.61,75.41,5.92,38.87-1.69,74.76-24.71,106.84-19.63,27.37-46.27,44.88-78.71,53.68-22.68,6.16-45.8,7.41-68.7,3-54.61-10.63-92.33-41.83-110.86-94.82-4.4-12.57-6-25.79-6.43-39.19-1.34-40,11.33-74.73,38.89-103.69a134.75,134.75,0,0,1,72.15-39.92C1735.95,270.55,1747.72,269.58,1759.37,268ZM1676,399.85c-.34,32,5.94,51.52,19.85,68,20.59,24.34,47.21,33.33,78.54,28.23,21.57-3.51,39.06-14.3,51.25-32.3,19.5-28.78,21.83-59.65,7.79-91.33-20.63-46.56-76.53-61.25-117.36-36.7C1688.36,352.4,1676.66,378.55,1676,399.85Z"/><path class="cls-2" d="M2191.45,553.18c-41.86-1.94-79-15-111.26-41.57-3.27-2.69-3.3-4.29-.54-7.47q14.72-17,28.76-34.49c2.71-3.39,4.55-3.2,7.57-.73,12.69,10.4,26.56,18.85,42.2,24,18.76,6.22,37.84,9.23,57.17,2.76,9.92-3.32,17-9.76,18.19-20.89,1.18-10.73-3.64-18.28-12.92-23.11a84.64,84.64,0,0,0-14.08-6.23c-15.85-4.84-31.88-9.09-47.74-13.91-20.6-6.25-40.85-13.27-55.82-30.05a55.86,55.86,0,0,1-12.89-25c-5.6-24.27-3.8-47.62,10.36-68.83,12.87-19.27,31.65-30.49,53.93-34.75,44.24-8.46,85.4-.23,122.71,25.54a38.63,38.63,0,0,0,3.65,2.61c4.1,2.17,3.54,4.67,1.19,8C2273.46,321.07,2265,333,2257,345.26c-2.56,3.89-4.55,3.73-7.89,1.42-14-9.69-29.13-17.28-45.74-21.4-13.56-3.37-27.25-4.39-40.67.8-8.45,3.27-14.43,8.92-15.51,18.41-1.17,10.22,1.9,19.09,11.64,23.24a334,334,0,0,0,38.78,13.82c21.87,6.28,44,11.65,63.5,24.06,20.68,13.15,31.22,31.79,31.86,56.41.48,18.4-2.36,35.76-12.69,51.32-12,18.1-29.44,28.76-50.07,33.76C2217.52,550.17,2204.37,551.22,2191.45,553.18Z"/><path class="cls-2" d="M890.92,494.12v53.34c-1.91.12-3.67.32-5.44.32q-92.71,0-185.41.11c-4.47,0-5.6-1.38-5.59-5.7q.17-131.19.09-262.38c0-1.63.14-3.26.23-5.26H754v6.32q0,102.7,0,205.4c0,7.84,0,7.84,7.67,7.84h129.2Z"/><path class="cls-2" d="M1132.79,547.54c-2.12.1-3.75.24-5.39.24q-92.71,0-185.42.11c-4.38,0-5.61-1.11-5.6-5.56q.2-131.44.1-262.88c0-1.48,0-3,0-4.86h59.18c.1,1.94.3,4,.3,6.12q0,103,0,205.91c0,7.5,0,7.5,7.72,7.5h129.09Z"/><path class="cls-2" d="M562.54,547.2v-273h25.19c9.66,0,19.33.12,29-.06,3.7-.07,5.31.74,5.3,4.94q-.17,131.93-.06,263.86c0,2.73,0,4.93-3.79,4.91-18-.1-36-.06-54-.1A6.74,6.74,0,0,1,562.54,547.2Z"/><path class="cls-2" d="M1238.55,546.76h-58.94V541q0-130.22-.1-260.44c0-4.75,1.24-6.38,6.12-6.3,16.16.26,32.33.19,48.49,0,3.74,0,4.84,1.17,4.84,4.87q-.13,131.72-.08,263.44C1238.88,543.89,1238.68,545.19,1238.55,546.76Z"/><path class="cls-2" d="M2023,274.61V547.26c-1.62.15-3.06.4-4.51.4-16.33,0-32.67-.09-49,.09-3.89,0-5.16-1-5.16-5.08q.16-131.74.05-263.49c0-3,.09-5.08,4.11-5,17.33.17,34.66.08,52,.1A21.26,21.26,0,0,1,2023,274.61Z"/><path class="cls-1" d="M1676,399.85c.62-21.3,12.31-47.45,40.08-64.14,40.83-24.54,96.72-9.86,117.36,36.7,14,31.68,11.7,62.55-7.79,91.33-12.19,18-29.67,28.79-51.25,32.3-31.33,5.1-58-3.88-78.54-28.23C1682,451.37,1675.71,431.84,1676,399.85Z"/></svg>