<svg id="Layer_1" data-name="Layer 1" xmlns="http://www.w3.org/2000/svg" viewBox="0 0 800 800"><defs><style>.cls-1{fill:#333;}</style></defs><title>Artboard 1</title><path class="cls-1" d="M268.26,323.83V223.08c1.93-.11,3.69-.31,5.45-.31q124,0,248-.12c5,0,6,1.62,6,6.26q-.29,44.24,0,88.48c0,4.86-1.06,6.69-6.34,6.56-15.49-.37-31,0-46.49-.22-4-.05-5.11,1.16-5.1,5.11q.18,82,0,164c0,4.11,1.15,5.47,5.35,5.41,15.83-.22,31.66,0,47.49-.13,3.09,0,5,.35,5,4.2-.11,31.49-.08,63-.11,94.48a9.74,9.74,0,0,1-.44,1.83H268.34V498.15H274c15.33,0,30.66-.06,46,0,3.62,0,5.41-.78,5.4-5q-.18-82.24,0-164.47c0-4.17-1.56-5-5.31-5-15.33.16-30.66.07-46,.07Z"/></svg>