<svg xmlns="http://www.w3.org/2000/svg" viewBox="0 0 104.06 104.06"><defs><style>.cls-1{fill:#70d0e0;}.cls-2{fill:#a373f9;}.cls-3{fill:#c596fe;}.cls-4{fill:#fff;}.cls-5{fill:#7552cc;}.cls-6{fill:#ecd7ff;}.cls-7{fill:#4b39b2;}.cls-8{fill:none;}</style></defs><title>tealcirclelogo</title><g id="Layer_2" data-name="Layer 2"><g id="Layer_2-2" data-name="Layer 2"><path class="cls-1" d="M104.06,52A52,52,0,1,1,52,0a52,52,0,0,1,52,52"/><path class="cls-2" d="M31.49,51.87a10,10,0,0,1,5.65-5.29,21.57,21.57,0,0,1-6.51-14.77A20,20,0,0,0,12.68,45a10.05,10.05,0,0,0,18.81,6.91Z"/><path class="cls-3" d="M50.52,57.54a10.1,10.1,0,0,1-.77,2.58,20.09,20.09,0,0,1-36.64-16.5,10,10,0,0,0,18.32,8.25,10,10,0,0,1,5.65-5.29,21.57,21.57,0,0,0,13,6.05c.43,0,.86.07,1.3.08a20,20,0,0,1-.84,4.86v0"/><path class="cls-4" d="M52.18,52.73c-.38,0-.74,0-1.1,0A19.66,19.66,0,1,1,30.6,32.23c0-.37,0-.73,0-1.1s0-.56,0-.85A21.61,21.61,0,1,0,53,52.71l-.84,0"/><path class="cls-5" d="M51.9,31.39A10,10,0,0,1,57.19,37,21.53,21.53,0,0,1,72,30.53a20,20,0,0,0-13.15-18,10,10,0,0,0-6.9,18.81Z"/><path class="cls-2" d="M46.24,50.51a10,10,0,0,1-2.59-.77A20.09,20.09,0,1,1,59.85,13l.3.14A10,10,0,0,0,51.9,31.42a10.05,10.05,0,0,1,5.29,5.65,21.57,21.57,0,0,0-6,13c0,.43-.06.86-.08,1.29a19.56,19.56,0,0,1-4.86-.83Z"/><path class="cls-4" d="M51.16,52.16c0-.37,0-.74,0-1.1A19.66,19.66,0,1,1,71.67,30.6c.36,0,.73,0,1.1,0s.56,0,.84,0A21.61,21.61,0,1,0,51.16,53Z"/><path class="cls-3" d="M52.16,72.52a10,10,0,0,1-5.29-5.65A21.58,21.58,0,0,1,32.1,73.35a20,20,0,0,0,13.14,18,10,10,0,0,0,6.91-18.82Z"/><path class="cls-6" d="M57.82,53.56a9.76,9.76,0,0,1,2.59.76A20.09,20.09,0,0,1,44.21,91.1L43.9,91a10.05,10.05,0,0,0,8.26-18.33A10,10,0,0,1,46.87,67a21.55,21.55,0,0,0,6.05-13c0-.43.07-.86.09-1.3a20.52,20.52,0,0,1,4.86.83Z"/><path class="cls-4" d="M53,53a3.94,3.94,0,0,1-1.93,0,3.72,3.72,0,0,1,0-1.93,2.9,2.9,0,0,1,1.93,0A2.68,2.68,0,0,1,53,53"/><path class="cls-7" d="M72.62,52.18A10.05,10.05,0,0,1,67,57.47a21.53,21.53,0,0,1,6.51,14.77,20,20,0,0,0,18-13.15,10,10,0,0,0-18.81-6.9Z"/><path class="cls-5" d="M53.53,46.51a10.1,10.1,0,0,1,.77-2.58A20.09,20.09,0,0,1,91.09,60.1l-.15.34a10.05,10.05,0,0,0-18.32-8.26A10,10,0,0,1,67,57.47a21.56,21.56,0,0,0-13-6c-.33,0-.66-.06-1-.08-.09,0,0-.17-.09-.17s-.18-.06-.17-.17a19.86,19.86,0,0,1,.82-4.53v0"/><path class="cls-4" d="M51.88,51.31a10,10,0,0,1,1.1,0A19.66,19.66,0,1,1,73.46,71.82c0,.36,0,.73,0,1.1s0,.56,0,.84A21.61,21.61,0,1,0,51.05,51.33l.83,0"/><path class="cls-4" d="M53,51.9c0,.37,0,.74,0,1.1A19.66,19.66,0,1,1,32.51,73.44c-.37,0-.71,0-1.08,0a8.24,8.24,0,0,1-.86,0A21.6,21.6,0,1,0,53,51.06c0,.28,0,.56,0,.84"/><path class="cls-8" d="M0,52A52,52,0,1,0,52,0,52,52,0,0,0,0,52"/></g></g></svg>