<?xml version="1.0" encoding="UTF-8" standalone="no"?>
<svg
   xmlns:dc="http://purl.org/dc/elements/1.1/"
   xmlns:cc="http://creativecommons.org/ns#"
   xmlns:rdf="http://www.w3.org/1999/02/22-rdf-syntax-ns#"
   xmlns:svg="http://www.w3.org/2000/svg"
   xmlns="http://www.w3.org/2000/svg"
   viewBox="0 0 860.91998 179.64"
   height="179.64"
   width="860.91998"
   xml:space="preserve"
   id="svg2"
   version="1.1"><metadata
     id="metadata8"><rdf:RDF><cc:Work
         rdf:about=""><dc:format>image/svg+xml</dc:format><dc:type
           rdf:resource="http://purl.org/dc/dcmitype/StillImage" /></cc:Work></rdf:RDF></metadata><defs
     id="defs6" /><g
     transform="matrix(1.3333333,0,0,-1.3333333,0,179.64)"
     id="g10"><g
       transform="scale(0.1)"
       id="g12"><path
         id="path14"
         style="fill:#231f20;fill-opacity:1;fill-rule:nonzero;stroke:none"
         d="M 696.773,956.262 683.766,908.555 H 578.238 L 498.73,592.688 C 463.551,453.43 428.129,345.73 392.477,269.602 341.879,162.148 287.422,87.9414 229.125,46.9805 184.801,15.6602 140.469,0 96.1328,0 67.2188,0 42.6406,8.67188 22.4063,26.0195 7.47656,38.0703 0,53.7305 0,73 c 0,15.4297 6.14453,28.801 18.4336,40.121 12.2852,11.32 27.3477,16.981 45.168,16.981 13.0156,0 23.9804,-4.082 32.8906,-12.293 8.9218,-8.18 13.3708,-17.59 13.3708,-28.1879 0,-10.5898 -5.058,-20.4727 -15.1755,-29.6328 -7.707,-6.75 -11.5664,-11.8086 -11.5664,-15.1797 0,-4.3398 1.6953,-7.6992 5.0586,-10.1172 4.3359,-3.3594 11.0937,-5.0625 20.2383,-5.0625 20.723,0 42.535,6.5 65.414,19.5195 22.891,13.0118 43.254,32.4102 61.074,58.1836 17.832,25.789 34.696,63.008 50.598,111.668 6.742,20.238 24.812,86.988 54.207,200.219 L 465.48,908.555 H 339.711 l 10.125,47.707 c 39.988,0 67.937,2.761 83.84,8.308 15.902,5.528 30.469,16.133 43.73,31.797 13.246,15.653 30.469,44.933 51.68,87.823 28.426,57.82 55.656,102.63 81.676,134.44 35.656,42.89 73.117,75.05 112.39,96.49 39.27,21.44 76.258,32.17 110.953,32.17 36.614,0 66.012,-9.29 88.18,-27.83 22.156,-18.56 33.25,-38.67 33.25,-60.35 0,-16.88 -5.547,-31.08 -16.625,-42.65 -11.09,-11.56 -25.297,-17.34 -42.644,-17.34 -14.942,0 -27.106,4.33 -36.5,13.01 -9.399,8.67 -14.098,19.03 -14.098,31.07 0,7.71 3.133,17.23 9.398,28.56 6.258,11.31 9.399,18.9 9.399,22.77 0,6.74 -2.168,11.8 -6.504,15.17 -6.273,4.81 -15.434,7.23 -27.469,7.23 -30.359,0 -57.586,-9.64 -81.679,-28.91 -32.286,-25.55 -61.196,-65.54 -86.735,-119.98 -13.012,-28.44 -36.863,-99.02 -71.555,-211.778 h 106.25" /><path
         id="path16"
         style="fill:#231f20;fill-opacity:1;fill-rule:nonzero;stroke:none"
         d="M 1395.69,956.262 1269.92,525.469 c -18.79,-64.09 -28.19,-104.571 -28.19,-121.426 0,-8.684 1.56,-15.066 4.7,-19.16 3.13,-4.102 7.34,-6.145 12.65,-6.145 8.19,0 17.22,3.735 27.1,11.203 9.87,7.469 34.81,37.227 74.81,89.27 l 21.69,-16.621 c -38.08,-60.246 -77.1,-104.57 -117.1,-133 -26.5,-18.301 -52.04,-27.461 -76.62,-27.461 -18.78,0 -33.49,5.301 -44.08,15.902 -10.61,10.59 -15.91,24.321 -15.91,41.196 0,16.378 3.13,38.058 9.4,65.05 7.7,35.657 29.64,113.235 65.78,232.743 C 1122.22,522.578 1053.68,429.813 998.512,378.738 943.328,327.66 892.133,302.129 844.918,302.129 c -22.176,0 -40.965,7.711 -56.379,23.121 -15.43,15.422 -23.129,34.938 -23.129,58.551 0,36.14 10.59,91.551 31.801,166.25 l 62.883,223.34 c 15.418,53.484 23.129,86.738 23.129,99.746 0,5.781 -2.055,10.711 -6.145,14.812 -4.098,4.094 -8.558,6.145 -13.367,6.145 -10.121,0 -20.238,-3.617 -30.359,-10.84 -10.122,-7.231 -33.008,-33.977 -68.664,-80.227 l -22.407,15.899 c 36.137,55.887 74.449,97.09 114.922,123.594 30.832,20.71 59.274,31.082 85.293,31.082 17.817,0 32.399,-5.672 43.727,-16.981 11.316,-11.328 16.987,-25.906 16.987,-43.73 0,-26.028 -9.647,-72.532 -28.913,-139.5 L 906.352,539.922 c -18.793,-63.606 -28.188,-103.836 -28.188,-120.703 0,-9.16 3.004,-16.516 9.031,-22.039 6.024,-5.547 14.098,-8.325 24.215,-8.325 15.903,0 36.617,7.961 62.164,23.86 25.531,15.898 59.626,51.191 102.276,105.887 42.65,54.691 77.81,106.007 105.53,153.957 27.7,47.941 57.21,124.199 88.54,228.757 l 15.9,54.946 h 109.87" /><path
         id="path18"
         style="fill:#231f20;fill-opacity:1;fill-rule:nonzero;stroke:none"
         d="M 1879.23,1347.29 1632.04,487.156 c -12.05,-42.886 -18.07,-69.148 -18.07,-78.777 0,-7.227 2.28,-13.262 6.86,-18.074 4.58,-4.817 10.24,-7.231 16.99,-7.231 9.15,0 19.03,4.094 29.64,12.285 25.04,19.758 51.31,50.356 78.78,91.797 l 21.68,-22.398 c -45.78,-64.582 -87.94,-109.629 -126.48,-135.168 -28.44,-18.301 -55.42,-27.461 -80.96,-27.461 -18.32,0 -33.61,6.269 -45.9,18.793 -12.29,12.527 -18.43,26.976 -18.43,43.363 0,17.348 7.71,53 23.13,106.977 l 195.88,677.978 c 15.9,55.41 23.85,87.21 23.85,95.41 0,11.56 -4.58,21.07 -13.73,28.55 -9.16,7.47 -23.38,11.21 -42.64,11.21 -11.1,0 -27.96,-1.7 -50.6,-5.06 v 26.74 l 247.19,41.2" /><path
         id="path20"
         style="fill:#231f20;fill-opacity:1;fill-rule:nonzero;stroke:none"
         d="m 2364.33,477.043 c -50.13,-60.246 -100.72,-104.445 -151.79,-132.645 -51.08,-28.179 -105.05,-42.269 -161.91,-42.269 -68.43,0 -121.79,19.269 -160.1,57.82 -38.31,38.547 -57.46,90.356 -57.46,155.403 0,73.718 20.6,146.242 61.8,217.558 41.2,71.309 96.6,129.258 166.24,173.84 69.63,44.559 137.93,66.852 204.92,66.852 52.51,0 91.79,-10.965 117.81,-32.887 26.02,-21.938 39.03,-48.789 39.03,-80.586 0,-29.887 -9.16,-55.422 -27.46,-76.621 -13.5,-16.391 -30.13,-24.57 -49.88,-24.57 -14.94,0 -27.35,4.8 -37.22,14.453 -9.88,9.629 -14.82,21.675 -14.82,36.14 0,9.141 1.81,17.578 5.42,25.293 3.61,7.703 11.08,16.992 22.41,27.832 11.31,10.84 18.18,18.66 20.6,23.489 2.4,4.812 3.61,9.871 3.61,15.171 0,10.129 -4.58,18.547 -13.73,25.305 -13.98,9.629 -33.73,14.453 -59.27,14.453 -47.23,0 -93.97,-16.621 -140.23,-49.875 -46.25,-33.238 -85.77,-80.476 -118.53,-141.668 -39.52,-74.211 -59.27,-148.418 -59.27,-222.617 0,-49.148 13.97,-88.066 41.92,-116.726 27.94,-28.672 66.01,-43.008 114.21,-43.008 37.09,0 73.83,9.265 110.22,27.82 36.38,18.547 77.22,52.156 122.51,100.828 l 20.97,-18.785" /><path
         id="path22"
         style="fill:#231f20;fill-opacity:1;fill-rule:nonzero;stroke:none"
         d="m 2526.95,933.125 249.37,40.477 -104.08,-351.278 c 84.31,144.071 160.93,244.778 229.84,302.129 39.03,32.766 70.84,49.149 95.42,49.149 15.89,0 28.42,-4.696 37.58,-14.09 9.15,-9.407 13.73,-23.02 13.73,-40.84 0,-31.809 -8.2,-62.156 -24.57,-91.074 -11.57,-21.68 -28.19,-32.532 -49.87,-32.532 -11.1,0 -20.61,3.618 -28.55,10.852 -7.96,7.227 -12.9,18.301 -14.82,33.242 -0.98,9.153 -3.14,15.188 -6.51,18.074 -3.86,3.852 -8.44,5.786 -13.73,5.786 -8.2,0 -15.9,-1.934 -23.13,-5.786 -12.54,-6.757 -31.57,-25.546 -57.1,-56.375 -40,-47.234 -83.37,-108.425 -130.11,-183.593 -20.23,-31.805 -37.58,-67.703 -52.04,-107.696 -20.24,-54.929 -31.8,-87.949 -34.69,-99.023 l -23.13,-91.078 h -110.59 l 133.72,448.859 c 15.42,52.043 23.13,89.145 23.13,111.313 0,8.672 -3.62,15.894 -10.84,21.675 -9.65,7.707 -22.41,11.575 -38.31,11.575 -10.12,0 -28.68,-2.168 -55.66,-6.504 l -5.06,26.738" /><path
         id="path24"
         style="fill:#231f20;fill-opacity:1;fill-rule:nonzero;stroke:none"
         d="M 3722.46,956.262 3596.69,525.469 c -18.79,-64.09 -28.18,-104.571 -28.18,-121.426 0,-8.684 1.55,-15.066 4.69,-19.16 3.13,-4.102 7.35,-6.145 12.65,-6.145 8.19,0 17.23,3.735 27.11,11.203 9.86,7.469 34.8,37.227 74.8,89.27 l 21.69,-16.621 c -38.07,-60.246 -77.11,-104.57 -117.1,-133 -26.5,-18.301 -52.04,-27.461 -76.61,-27.461 -18.8,0 -33.49,5.301 -44.09,15.902 -10.61,10.59 -15.91,24.321 -15.91,41.196 0,16.378 3.14,38.058 9.41,65.05 7.69,35.657 29.63,113.235 65.77,232.743 -81.93,-134.442 -150.47,-227.207 -205.64,-278.282 -55.18,-51.078 -106.37,-76.609 -153.59,-76.609 -22.17,0 -40.96,7.711 -56.38,23.121 -15.43,15.422 -23.13,34.938 -23.13,58.551 0,36.14 10.59,91.551 31.8,166.25 l 62.89,223.34 c 15.42,53.484 23.13,86.738 23.13,99.746 0,5.781 -2.06,10.711 -6.15,14.812 -4.1,4.094 -8.56,6.145 -13.37,6.145 -10.12,0 -20.24,-3.617 -30.36,-10.84 -10.12,-7.231 -33.01,-33.977 -68.66,-80.227 l -22.41,15.899 c 36.14,55.887 74.45,97.09 114.92,123.594 30.84,20.71 59.28,31.082 85.3,31.082 17.81,0 32.4,-5.672 43.73,-16.981 11.31,-11.328 16.98,-25.906 16.98,-43.73 0,-26.028 -9.65,-72.532 -28.91,-139.5 l -67.94,-233.469 c -18.8,-63.606 -28.19,-103.836 -28.19,-120.703 0,-9.16 3,-16.516 9.03,-22.039 6.02,-5.547 14.1,-8.325 24.21,-8.325 15.91,0 36.62,7.961 62.17,23.86 25.53,15.898 59.63,51.191 102.27,105.887 42.64,54.691 77.82,106.007 105.53,153.957 27.7,47.941 57.21,124.199 88.54,228.757 l 15.91,54.946 h 109.86" /><path
         id="path26"
         style="fill:#231f20;fill-opacity:1;fill-rule:nonzero;stroke:none"
         d="m 4116.35,973.602 -93.96,-325.985 c 41.93,76.621 77.58,134.199 106.99,172.754 45.76,59.746 90.33,103.106 133.71,130.098 25.53,15.422 52.29,23.133 80.24,23.133 24.08,0 44.08,-7.711 59.98,-23.133 15.89,-15.418 23.84,-35.176 23.84,-59.27 0,-23.609 -5.52,-54.449 -16.62,-92.515 l -51.31,-183.586 c 78.54,146.965 152.99,250.09 223.34,309.355 39.03,32.766 77.58,49.149 115.65,49.149 22.17,0 40.35,-7.586 54.57,-22.77 14.22,-15.18 21.33,-38.664 21.33,-70.473 0,-27.949 -4.34,-57.586 -13.01,-88.906 l -79.51,-281.16 c -17.35,-61.199 -26.02,-95.176 -26.02,-101.914 0,-6.758 2.17,-12.539 6.51,-17.356 2.89,-3.367 6.73,-5.054 11.56,-5.054 4.8,0 13.24,4.578 25.29,13.738 27.46,21.191 53.24,49.148 77.34,83.84 l 23.85,-15.18 c -12.05,-19.273 -33.38,-45.777 -63.96,-79.512 -30.61,-33.726 -56.74,-56.617 -78.42,-68.656 -21.68,-12.051 -41.7,-18.07 -60,-18.07 -16.88,0 -30.96,5.781 -42.29,17.34 -11.32,11.57 -16.97,25.769 -16.97,42.648 0,23.125 9.86,69.621 29.63,139.504 l 65.78,232.012 c 14.92,53.484 22.87,83.125 23.85,88.906 1.44,9.149 2.17,18.066 2.17,26.738 0,12.039 -2.66,21.438 -7.95,28.196 -5.78,6.738 -12.29,10.117 -19.51,10.117 -20.26,0 -41.7,-10.363 -64.34,-31.074 -66.5,-61.203 -128.65,-146.985 -186.48,-257.317 -38.07,-72.773 -73.73,-166.008 -106.98,-279.73 h -109.14 l 123.6,437.301 c 13.49,47.214 20.23,78.777 20.23,94.687 0,13.008 -2.66,22.637 -7.95,28.902 -5.31,6.262 -11.81,9.399 -19.51,9.399 -15.9,0 -32.77,-5.781 -50.59,-17.348 -28.92,-18.785 -66.15,-59.031 -111.68,-120.699 -45.52,-61.691 -80.84,-120.715 -105.89,-177.094 -12.05,-26.504 -40.73,-111.558 -86,-255.148 h -106.99 l 133.73,468.375 17.34,60.711 c 3.36,9.152 5.06,15.91 5.06,20.246 0,10.594 -4.82,20.117 -14.45,28.543 -9.65,8.426 -21.94,12.656 -36.86,12.656 -6.27,0 -23.63,-2.891 -52.05,-8.684 l -6.5,26.75 249.35,45.536" /><path
         id="path28"
         style="fill:#104076;fill-opacity:1;fill-rule:nonzero;stroke:none"
         d="m 5362.72,573.215 v 75.894 l 274.04,0.442 V 409.492 c -42.09,-33.535 -85.47,-58.762 -130.19,-75.672 -44.71,-16.922 -90.61,-25.379 -137.68,-25.379 -63.53,0 -121.29,13.598 -173.2,40.817 -51.94,27.207 -91.11,66.562 -117.6,118.047 -26.48,51.472 -39.73,108.996 -39.73,172.539 0,62.949 13.17,121.719 39.52,176.301 26.3,54.558 64.2,95.085 113.63,121.57 49.41,26.473 106.35,39.719 170.76,39.719 46.78,0 89.06,-7.582 126.88,-22.739 37.79,-15.144 67.44,-36.257 88.92,-63.316 21.47,-27.07 37.79,-62.375 48.99,-105.91 l -77.23,-21.184 c -9.71,32.949 -21.78,58.84 -36.19,77.668 -14.42,18.828 -35.02,33.906 -61.78,45.235 -26.78,11.32 -56.48,16.984 -89.14,16.984 -39.14,0 -72.97,-5.957 -101.5,-17.871 -28.54,-11.914 -51.57,-27.578 -69.07,-46.992 -17.5,-19.414 -31.09,-40.754 -40.82,-63.989 -16.46,-40.015 -24.7,-83.406 -24.7,-130.183 0,-57.657 9.94,-105.91 29.78,-144.739 19.86,-38.835 48.77,-67.664 86.72,-86.492 37.95,-18.828 78.24,-28.242 120.92,-28.242 37.07,0 73.24,7.129 108.55,21.406 35.3,14.27 62.07,29.493 80.32,45.672 v 120.473 h -190.2" /><path
         id="path30"
         style="fill:#104076;fill-opacity:1;fill-rule:nonzero;stroke:none"
         d="m 5877.86,319.469 v 570.582 h -213.15 v 76.344 h 512.78 V 890.051 H 5963.46 V 319.469 h -85.6" /><path
         id="path32"
         style="fill:#231f20;fill-opacity:1;fill-rule:nonzero;stroke:none"
         d="m 6339.6,846.926 v 119.383 h 29.3 l 30.18,-95.364 29.15,95.364 h 28.71 V 846.926 h -18.17 V 947.117 L 6408.01,846.926 H 6390 l -32.08,101.66 v -101.66 z m -72.21,0 v 101.66 h -38.67 v 17.723 h 97.55 v -17.723 h -38.96 v -101.66 h -19.92" /></g></g></svg>