<?xml version="1.0" encoding="UTF-8"?>
<!DOCTYPE svg PUBLIC "-//W3C//DTD SVG 1.1//EN" "http://www.w3.org/Graphics/SVG/1.1/DTD/svg11.dtd">
<!-- Creator: CorelDRAW X6 -->
<svg xmlns="http://www.w3.org/2000/svg" xml:space="preserve" width="7.875in" height="7.86111in" version="1.1" style="shape-rendering:geometricPrecision; text-rendering:geometricPrecision; image-rendering:optimizeQuality; fill-rule:evenodd; clip-rule:evenodd"
viewBox="0 0 7875 7861"
 xmlns:xlink="http://www.w3.org/1999/xlink">
 <defs>
  <style type="text/css">
   <![CDATA[
    .fil1 {fill:#294E6E;fill-rule:nonzero}
    .fil3 {fill:#324151;fill-rule:nonzero}
    .fil2 {fill:#8B8888;fill-rule:nonzero}
    .fil0 {fill:#FEFEFE;fill-rule:nonzero}
   ]]>
  </style>
 </defs>
 <g id="Layer_x0020_1">
  <metadata id="CorelCorpID_0Corel-Layer"/>
  <path class="fil0" d="M3941 7861c-2177,0 -3941,-1763 -3941,-3937 0,-2164 1747,-3919 3909,-3937l64 0c2161,17 3908,1772 3909,3934l0 4c-1,2173 -1765,3935 -3941,3935zm-116 -459l5 5 8 2c34,1 68,3 102,3 1612,0 2968,-1093 3365,-2578 78,-290 120,-595 120,-910 0,-1922 -1560,-3480 -3484,-3480 -1924,0 -3484,1558 -3484,3480 0,1883 1498,3417 3368,3478z"/>
  <path class="fil1" d="M457 3924c0,-1922 1560,-3480 3484,-3480 1924,0 3484,1558 3484,3480 0,1922 -1560,3480 -3484,3480 -1924,0 -3484,-1558 -3484,-3480z"/>
  <path class="fil2" d="M3940 7412c-34,0 -68,-2 -102,-3l-8 -2 -5 -5c38,1 77,2 116,2 1609,0 2963,-1090 3364,-2571 -398,1485 -1754,2578 -3365,2578z"/>
  <path class="fil3" d="M3941 7404c-39,0 -77,-1 -116,-2l-2580 -2577 450 -2226 376 376 649 -376 647 646 824 -646 512 511 547 -348 1091 105 1075 1073 8 12c-2,305 -43,600 -118,882 -400,1481 -1755,2571 -3364,2571z"/>
  <polygon class="fil0" points="1258,5284 1320,5284 1320,4908 1258,4908 "/>
  <path class="fil0" d="M1582 5284l-59 0 0 -139c0,-28 -1,-46 -4,-56 -2,-9 -6,-16 -12,-21 -6,-5 -13,-7 -21,-7 -10,0 -19,3 -27,10 -8,6 -14,15 -17,27 -3,11 -5,33 -5,64l0 124 -59 0 0 -272 55 0 0 40c10,-15 21,-27 33,-35 12,-8 26,-12 41,-12 17,0 32,5 44,13 12,9 20,21 25,35 5,14 7,35 7,61l0 169z"/>
  <path class="fil0" d="M1744 5012l0 57 -40 0 0 110c0,24 1,38 2,41 2,7 7,10 15,10 5,0 13,-2 24,-7l5 56c-14,7 -29,11 -46,11 -15,0 -27,-3 -36,-11 -9,-7 -15,-17 -18,-31 -2,-10 -3,-30 -3,-61l0 -119 -27 0 0 -57 27 0 0 -54 59 -42 0 96 40 0z"/>
  <path class="fil0" d="M1919 5125c-1,-21 -5,-37 -14,-48 -9,-11 -19,-16 -31,-16 -12,0 -23,6 -32,17 -9,11 -13,27 -13,47l89 0zm-3 73l59 12c-8,27 -20,48 -37,61 -17,13 -37,20 -61,20 -33,0 -59,-11 -76,-33 -21,-26 -32,-62 -32,-108 0,-46 11,-82 32,-109 18,-23 42,-35 71,-35 32,0 57,12 75,36 21,27 31,67 31,119l0 8 -148 0c1,22 5,38 15,50 9,12 21,18 34,18 19,0 32,-13 38,-39z"/>
  <polygon class="fil0" points="2025,5284 2084,5284 2084,4908 2025,4908 "/>
  <polygon class="fil0" points="2145,5284 2204,5284 2204,4908 2145,4908 "/>
  <path class="fil0" d="M2265 5284l0 -272 59 0 0 272 -59 0zm0 -309l0 -67 59 0 0 67 -59 0z"/>
  <path class="fil0" d="M2432 5142c0,29 4,50 14,64 9,13 21,20 34,20 14,0 27,-7 36,-20 10,-14 15,-34 15,-62 0,-28 -5,-49 -14,-63 -10,-14 -22,-20 -36,-20 -14,0 -26,7 -35,20 -10,13 -14,34 -14,62zm-53 160l68 10c1,10 4,17 9,21 5,4 13,6 25,6 13,0 24,-2 32,-6 5,-3 10,-8 13,-15 3,-7 4,-20 4,-38l0 -40c-9,15 -19,26 -30,33 -11,7 -24,11 -37,11 -25,0 -46,-11 -62,-34 -20,-26 -29,-60 -29,-104 0,-46 9,-81 28,-105 18,-24 41,-36 67,-36 14,0 26,4 38,11 12,7 22,19 30,33l0 -38 56 0 0 244c0,39 -4,67 -11,85 -7,18 -18,31 -33,40 -15,9 -36,14 -62,14 -25,0 -44,-3 -59,-10 -15,-6 -26,-16 -34,-29 -8,-13 -12,-28 -12,-45l0 -9z"/>
  <path class="fil0" d="M2781 5125c0,-21 -5,-37 -14,-48 -9,-11 -19,-16 -31,-16 -12,0 -23,6 -31,17 -9,11 -13,27 -13,47l89 0zm-3 73l59 12c-8,27 -20,48 -37,61 -17,13 -37,20 -61,20 -33,0 -58,-11 -76,-33 -21,-26 -32,-62 -32,-108 0,-46 10,-82 32,-109 18,-23 42,-35 70,-35 32,0 57,12 75,36 21,27 31,67 31,119l0 8 -148 0c0,22 5,38 15,50 10,12 21,18 34,18 19,0 32,-13 38,-39z"/>
  <path class="fil0" d="M3091 5284l-59 0 0 -139c0,-28 -1,-46 -3,-56 -2,-9 -6,-16 -12,-21 -6,-5 -13,-7 -21,-7 -10,0 -19,3 -27,10 -8,6 -14,15 -17,27 -3,11 -5,33 -5,64l0 124 -59 0 0 -272 55 0 0 40c10,-15 21,-27 33,-35 12,-8 25,-12 40,-12 17,0 32,5 44,13 12,9 20,21 25,35 5,14 7,35 7,61l0 169z"/>
  <path class="fil0" d="M3253 5012l0 57 -40 0 0 110c0,24 0,38 2,41 3,7 8,10 15,10 5,0 13,-2 24,-7l5 56c-14,7 -29,11 -47,11 -15,0 -27,-3 -36,-11 -9,-7 -15,-17 -18,-31 -2,-10 -4,-30 -4,-61l0 -119 -27 0 0 -57 27 0 0 -54 60 -42 0 96 40 0z"/>
  <polygon class="fil0" points="3413,5284 3413,4908 3506,4908 3562,5165 3618,4908 3712,4908 3712,5284 3654,5284 3654,4988 3592,5284 3532,5284 3471,4988 3471,5284 "/>
  <path class="fil0" d="M3906 5125c-1,-21 -5,-37 -14,-48 -8,-11 -19,-16 -30,-16 -12,0 -23,6 -32,17 -9,11 -13,27 -13,47l89 0zm-3 73l58 12c-8,27 -20,48 -37,61 -17,13 -37,20 -61,20 -33,0 -59,-11 -76,-33 -21,-26 -32,-62 -32,-108 0,-46 11,-82 32,-109 18,-23 42,-35 70,-35 32,0 57,12 75,36 21,27 31,67 31,119l0 8 -148 0c0,22 5,38 14,50 9,12 21,18 34,18 19,0 32,-13 38,-39z"/>
  <path class="fil0" d="M4059 5142c0,25 2,43 6,55 5,12 10,21 18,27 8,6 16,9 26,9 13,0 24,-7 34,-21 10,-14 14,-35 14,-63 0,-31 -5,-54 -14,-68 -9,-14 -21,-21 -36,-21 -13,0 -25,7 -35,20 -10,14 -15,34 -15,61zm158 142l-55 0 0 -40c-9,15 -20,27 -32,35 -12,8 -25,12 -38,12 -25,0 -47,-12 -65,-37 -18,-25 -28,-61 -28,-107 0,-47 9,-82 27,-105 18,-24 41,-36 67,-36 12,0 24,3 35,9 11,7 21,16 30,29l0 -135 59 0 0 376z"/>
  <path class="fil0" d="M4275 5284l0 -272 59 0 0 272 -59 0zm0 -309l0 -67 59 0 0 67 -59 0z"/>
  <path class="fil0" d="M4590 5092l-58 13c-4,-29 -18,-43 -40,-43 -15,0 -26,6 -35,19 -9,12 -13,33 -13,62 0,32 4,55 13,69 9,13 21,20 36,20 11,0 20,-4 28,-12 7,-8 12,-21 15,-40l58 12c-12,66 -46,98 -103,98 -36,0 -63,-14 -81,-42 -17,-28 -26,-61 -26,-100 0,-47 10,-82 30,-107 20,-24 46,-37 79,-37 26,0 48,7 64,21 16,14 28,36 36,66z"/>
  <path class="fil0" d="M4758 5153c-7,3 -19,7 -35,11 -18,5 -30,10 -36,16 -6,6 -8,13 -8,23 0,10 3,19 9,26 6,7 14,11 24,11 8,0 17,-3 25,-8 8,-6 14,-13 17,-20 3,-8 5,-22 5,-43l0 -15zm-79 -59l-54 -12c6,-27 17,-47 32,-59 15,-12 36,-18 65,-18 25,0 44,4 57,11 13,7 23,17 28,29 6,12 8,34 8,66l-1 84c0,24 1,41 3,53 2,12 5,24 11,37l-59 0 -8 -30c-10,12 -21,21 -32,27 -12,6 -24,9 -37,9 -22,0 -40,-7 -54,-22 -14,-15 -21,-34 -21,-58 0,-15 3,-29 8,-40 6,-11 14,-21 24,-28 10,-7 26,-13 49,-18 28,-6 47,-12 57,-18 0,-15 -1,-25 -3,-30 -2,-5 -6,-9 -12,-12 -6,-3 -14,-4 -24,-4 -11,0 -19,2 -25,7 -6,5 -11,14 -15,27z"/>
  <polygon class="fil0" points="4874,5284 4934,5284 4934,4908 4874,4908 "/>
  <path class="fil0" d="M5166 5096c0,43 8,76 24,97 16,22 37,32 61,32 25,0 45,-11 61,-32 16,-21 24,-54 24,-99 0,-44 -8,-76 -23,-97 -16,-21 -36,-31 -62,-31 -25,0 -46,11 -61,32 -16,21 -24,53 -24,98zm-64 3c0,-45 6,-82 20,-111 13,-29 31,-51 52,-65 21,-14 47,-21 78,-21 44,0 80,17 108,50 28,34 42,82 42,144 0,63 -15,112 -44,147 -26,31 -61,47 -105,47 -45,0 -80,-15 -106,-46 -29,-35 -44,-84 -44,-146z"/>
  <path class="fil0" d="M5505 5142c0,24 2,42 6,54 5,12 11,22 19,28 8,6 17,10 26,10 13,0 24,-7 33,-21 9,-14 14,-35 14,-65 0,-31 -5,-53 -14,-67 -9,-14 -21,-21 -36,-21 -14,0 -25,7 -35,20 -10,13 -14,34 -14,61zm-59 142l0 -376 59 0 0 135c9,-13 19,-22 30,-29 11,-6 23,-9 35,-9 27,0 49,12 67,36 18,24 27,59 27,105 0,46 -9,82 -28,107 -18,25 -40,37 -65,37 -13,0 -26,-4 -38,-12 -12,-8 -23,-20 -32,-34l0 40 -55 0z"/>
  <path class="fil0" d="M5711 4975l0 -67 59 0 0 67 -59 0zm59 37l0 264c0,37 -2,62 -6,76 -4,14 -11,24 -22,32 -11,7 -24,11 -39,11 -12,0 -25,-3 -41,-8l10 -62c6,2 11,2 15,2 10,0 17,-4 21,-12 2,-4 3,-19 3,-44l0 -260 59 0z"/>
  <path class="fil0" d="M5965 5125c0,-21 -5,-37 -13,-48 -9,-11 -19,-16 -31,-16 -12,0 -23,6 -32,17 -9,11 -13,27 -13,47l88 0zm-3 73l59 12c-8,27 -20,48 -37,61 -17,13 -37,20 -61,20 -33,0 -59,-11 -76,-33 -21,-26 -32,-62 -32,-108 0,-46 11,-82 32,-109 18,-23 42,-35 70,-35 32,0 57,12 75,36 21,27 31,67 31,119l0 8 -148 0c0,22 5,38 14,50 9,12 21,18 34,18 19,0 32,-13 38,-39z"/>
  <path class="fil0" d="M6267 5092l-58 13c-4,-29 -18,-43 -41,-43 -14,0 -26,6 -35,19 -9,12 -13,33 -13,62 0,32 4,55 13,69 9,13 21,20 36,20 11,0 21,-4 28,-12 7,-8 12,-21 15,-40l58 12c-12,66 -47,98 -103,98 -37,0 -64,-14 -81,-42 -18,-28 -26,-61 -26,-100 0,-47 10,-82 30,-107 20,-24 46,-37 78,-37 26,0 48,7 64,21 17,14 28,36 35,66z"/>
  <path class="fil0" d="M6413 5012l0 57 -40 0 0 110c0,24 1,38 2,41 2,7 7,10 15,10 6,0 13,-2 24,-7l5 56c-14,7 -29,11 -47,11 -15,0 -27,-3 -36,-11 -9,-7 -15,-17 -18,-31 -3,-10 -4,-30 -4,-61l0 -119 -27 0 0 -57 27 0 0 -54 59 -42 0 96 40 0z"/>
  <path class="fil0" d="M6434 5207l59 -11c5,29 21,43 48,43 14,0 25,-3 32,-8 7,-6 10,-13 10,-21 0,-6 -2,-11 -4,-14 -3,-4 -10,-6 -19,-9 -48,-13 -80,-25 -93,-37 -17,-15 -25,-35 -25,-60 0,-25 8,-46 24,-61 16,-15 39,-23 70,-23 29,0 51,6 67,17 15,11 26,30 32,55l-55 13c-5,-22 -19,-33 -42,-33 -15,0 -25,2 -31,6 -6,4 -9,10 -9,16 0,6 3,11 9,15 6,4 23,10 52,19 33,9 55,21 67,34 12,13 18,31 18,52 0,26 -9,48 -27,65 -18,17 -43,26 -75,26 -29,0 -53,-7 -71,-21 -19,-14 -31,-35 -36,-62z"/>
  <path class="fil0" d="M4941 3703c0,252 58,442 175,572 116,130 264,195 444,195 179,0 326,-64 441,-193 115,-129 172,-322 172,-580 0,-255 -56,-444 -168,-569 -112,-125 -261,-188 -446,-188 -185,0 -335,64 -448,190 -113,127 -170,318 -170,573zm-465 15c0,-227 34,-417 102,-570 51,-113 120,-215 208,-305 88,-90 183,-157 288,-200 139,-59 299,-88 480,-88 328,0 591,102 788,305 197,203 296,486 296,848 0,359 -98,640 -293,843 -196,203 -457,304 -784,304 -331,0 -595,-101 -790,-303 -195,-202 -293,-480 -293,-833zm-2430 1099l0 -2226 675 0 399 1519 395 -1519 676 0 0 2226 -416 0 -1 -1753 -440 1753 -434 0 -438 -1753 -1 1753 -416 0zm-799 0l0 -2226 450 0 0 2226 -450 0z"/>
  <path class="fil0" d="M6478 2711l11 0c16,0 26,-1 30,-2 4,-1 7,-3 9,-6 2,-3 3,-7 3,-10 0,-4 -1,-7 -3,-10 -2,-3 -5,-5 -9,-6 -4,-1 -14,-2 -30,-2l-11 0 0 37zm-28 78l0 -137 28 0c26,0 41,0 44,0 9,1 16,3 21,5 5,3 9,7 13,13 3,6 5,12 5,19 0,10 -3,18 -10,25 -6,7 -15,11 -27,13 4,1 7,3 10,5 2,2 5,5 9,11 1,1 4,7 10,17l16 28 -34 0 -11 -22c-8,-15 -14,-24 -19,-28 -5,-4 -12,-6 -19,-6l-7 0 0 56 -28 0zm58 -173c-18,0 -35,4 -51,13 -16,9 -29,21 -38,38 -9,17 -14,34 -14,52 0,18 5,35 14,52 9,16 22,29 38,38 16,9 34,14 51,14 18,0 35,-5 52,-14 16,-9 29,-22 38,-38 9,-16 14,-34 14,-52 0,-18 -5,-36 -14,-52 -9,-17 -22,-29 -39,-38 -16,-9 -33,-13 -51,-13zm0 -25c22,0 43,5 64,17 20,11 36,27 48,48 12,21 18,42 18,65 0,22 -6,44 -17,64 -12,20 -27,36 -48,47 -20,11 -42,17 -64,17 -23,0 -44,-6 -64,-17 -20,-11 -36,-27 -48,-47 -11,-20 -17,-42 -17,-64 0,-23 6,-44 18,-65 12,-21 27,-37 48,-48 20,-11 42,-17 64,-17z"/>
 </g>
</svg>
