<?xml version="1.0" standalone="no"?>
<!DOCTYPE svg PUBLIC "-//W3C//DTD SVG 20010904//EN"
 "http://www.w3.org/TR/2001/REC-SVG-20010904/DTD/svg10.dtd">
<svg version="1.0" xmlns="http://www.w3.org/2000/svg"
 width="1920.000000pt" height="1080.000000pt" viewBox="0 0 1920.000000 1080.000000"
 preserveAspectRatio="xMidYMid meet">
<metadata>
Created by potrace 1.13, written by Peter Selinger 2001-2015
</metadata>
<g transform="translate(0.000000,1080.000000) scale(0.100000,-0.100000)"
fill="#000000" stroke="none">
<path d="M1579 7815 c-724 -103 -1305 -638 -1463 -1346 -104 -469 -13 -955
253 -1351 259 -385 637 -638 1103 -740 91 -20 132 -22 343 -22 211 0 252 2
342 22 355 77 646 236 896 488 457 459 617 1138 417 1764 -41 129 -155 354
-237 470 -84 117 -270 307 -381 388 -218 161 -466 266 -743 318 -116 22 -408
27 -530 9z m501 -555 c472 -114 812 -465 916 -945 23 -110 23 -350 0 -460 -55
-253 -172 -464 -357 -640 -360 -343 -889 -429 -1335 -216 -137 65 -211 117
-326 229 -145 141 -241 292 -303 476 -198 592 91 1240 665 1487 90 39 208 73
309 89 92 15 334 4 431 -20z"/>
<path d="M4682 5568 l3 -1783 248 -3 247 -2 0 794 0 794 448 5 c339 4 475 9
562 21 312 45 504 135 671 315 192 207 276 469 248 775 -19 196 -80 360 -188
504 -142 187 -311 290 -560 339 -76 15 -182 17 -884 20 l-797 4 2 -1783z
m1536 1354 c101 -31 166 -65 224 -120 97 -90 137 -193 145 -372 12 -267 -83
-453 -282 -551 -158 -77 -257 -89 -747 -89 l-378 0 0 581 0 580 483 -3 c463
-4 485 -5 555 -26z"/>
<path d="M9530 5565 l0 -1785 230 0 230 0 0 1785 0 1785 -230 0 -230 0 0
-1785z"/>
<path d="M16890 7090 l0 -260 278 2 277 3 3 258 2 257 -280 0 -280 0 0 -260z"/>
<path d="M15768 6868 l-218 -72 0 -263 0 -263 -220 0 -220 0 2 -172 3 -173
215 -2 215 -2 5 -903 c5 -838 7 -907 24 -958 25 -77 57 -130 109 -177 95 -87
210 -122 433 -130 134 -5 376 8 427 23 15 5 17 23 17 186 l0 180 -22 -7 c-13
-3 -82 -9 -154 -12 -102 -4 -142 -2 -185 10 -76 22 -131 65 -160 123 l-24 49
-3 808 -3 807 276 0 275 0 0 175 0 175 -275 0 -275 0 0 335 c0 262 -3 335 -12
334 -7 0 -111 -32 -230 -71z"/>
<path d="M7932 6328 c-40 -5 -115 -19 -166 -32 -364 -93 -535 -282 -581 -644
l-7 -52 233 2 234 3 7 55 c17 134 86 239 196 298 80 43 168 62 287 62 237 0
404 -79 475 -224 37 -76 50 -161 50 -345 l0 -143 -22 5 c-13 3 -99 9 -193 12
-281 12 -596 -21 -785 -81 -313 -98 -530 -316 -606 -609 -25 -95 -25 -294 0
-385 56 -207 213 -383 416 -466 153 -62 357 -90 539 -73 128 11 198 30 308 84
111 55 226 158 300 269 l50 75 11 -127 c7 -70 18 -149 25 -177 l13 -50 210 0
c203 0 209 1 207 20 -1 11 -8 79 -15 150 -14 141 -16 588 -8 1340 6 501 6 499
-60 642 -63 135 -169 231 -335 301 -92 39 -243 77 -365 92 -100 12 -315 11
-418 -2z m691 -1334 l37 -6 0 -76 c0 -119 -18 -309 -36 -382 -40 -161 -153
-310 -289 -382 -103 -54 -180 -72 -315 -72 -179 -1 -290 35 -386 126 -103 97
-149 235 -125 374 45 254 279 393 714 424 110 8 325 4 400 -6z"/>
<path d="M11180 6324 c-377 -59 -589 -206 -682 -474 -20 -58 -49 -230 -41
-242 2 -5 105 -8 229 -8 171 0 225 3 228 13 2 6 9 41 16 77 40 217 204 329
481 330 182 0 329 -50 415 -142 83 -89 104 -171 104 -416 l0 -152 -27 7 c-59
15 -543 8 -673 -10 -144 -20 -293 -56 -381 -92 -264 -107 -451 -312 -520 -570
-28 -104 -31 -290 -6 -385 57 -220 213 -393 431 -480 240 -96 591 -98 801 -5
125 55 249 163 334 291 l49 73 6 -67 c10 -109 25 -214 36 -254 l11 -38 211 0
210 0 -6 33 c-29 164 -36 503 -26 1447 5 454 4 500 -13 560 -73 264 -269 418
-625 491 -133 27 -429 34 -562 13z m708 -1330 l42 -5 0 -92 c0 -135 -18 -301
-41 -387 -56 -207 -210 -360 -420 -417 -99 -27 -282 -24 -379 6 -96 30 -147
60 -205 122 -85 91 -123 215 -104 346 36 257 278 404 710 433 120 8 309 5 397
-6z"/>
<path d="M13922 6310 c-268 -34 -471 -155 -603 -360 l-49 -74 -2 194 -3 195
-233 3 -232 2 2 -1242 3 -1243 232 -3 232 -2 3 797 c3 790 4 799 26 878 48
173 136 305 262 390 105 71 187 97 330 103 138 5 206 -9 325 -67 133 -65 203
-147 251 -291 17 -51 19 -112 22 -933 l3 -877 235 2 234 3 0 906 c0 582 -4
927 -11 965 -52 298 -229 500 -523 600 -144 49 -357 72 -504 54z"/>
<path d="M18865 6275 c-260 -44 -442 -168 -533 -365 -17 -36 -34 -74 -39 -85
-5 -12 -10 77 -13 210 l-5 230 -233 3 -234 2 6 -72 c4 -40 9 -601 12 -1245 l5
-1173 235 0 234 0 0 713 c0 423 4 747 10 797 43 355 221 529 573 560 106 9
257 1 300 -15 16 -7 17 8 17 224 l0 231 -127 -1 c-71 -1 -164 -7 -208 -14z"/>
<path d="M16940 5025 l0 -1245 230 0 230 0 0 1245 0 1245 -230 0 -230 0 0
-1245z"/>
<path d="M253 4487 c-22 -34 -252 -482 -248 -485 3 -3 1699 -728 1781 -761 29
-11 70 5 925 369 492 210 899 385 906 388 17 10 -239 498 -258 494 -8 -2 -357
-152 -777 -333 -419 -181 -765 -329 -767 -329 -3 0 -319 136 -703 301 -383
166 -732 317 -774 335 -57 24 -80 30 -85 21z"/>
</g>
</svg>
